<svg width="24" height="24" viewBox="0 0 24 24" fill="none" xmlns="http://www.w3.org/2000/svg">
<path fill-rule="evenodd" clip-rule="evenodd" d="M18.9523 6.31223C18.7275 6.19782 18.5226 6.03996 18.3509 5.84252C18.0175 5.45918 17.5744 5.18748 17.0816 5.06416C16.5887 4.94084 16.0699 4.97186 15.5953 5.15302C15.1206 5.33418 14.7131 5.65674 14.4277 6.07708C14.1424 6.49741 13.993 6.99524 13.9998 7.50324L14 7.53005V8.53005C14 9.61442 13.1359 10.5013 12.0518 10.5294C9.96476 10.5835 7.8967 10.1206 6.03182 9.18196C5.36163 8.84463 4.72515 8.44961 4.12902 8.00264C4.11237 8.29638 4.10888 8.59992 4.12294 8.90923C4.17339 10.0192 4.4469 11.1618 5.11151 12.2112C5.76807 13.2479 6.88208 14.3146 8.81228 15.1724C9.47588 15.4674 9.92748 16.0988 9.99207 16.8222C10.0567 17.5455 9.72411 18.247 9.12326 18.6548C8.98693 18.7474 8.84912 18.8373 8.70992 18.9246C10.4076 18.8582 12.021 18.4248 13.4353 17.6721C16.623 15.9754 18.9989 12.5518 19 7.50363C18.9993 7.3499 18.9844 7.19655 18.9556 7.04555C18.9086 6.79986 18.9087 6.55147 18.9523 6.31223ZM20.2097 4.41827C21.2026 4.08243 22.1425 3.60493 23 3.00005C22.7226 4.13899 22.1904 5.19639 21.4475 6.09439C21.282 6.29448 21.106 6.48665 20.92 6.67005C20.9723 6.94364 20.9991 7.2215 21 7.50005C21 17.343 12.9415 22.4242 4.97602 20.549C3.63509 20.2333 2.29678 19.7205 1 19C2.34315 19.0535 3.67644 18.8736 4.94317 18.4767C5.24775 18.3813 5.54848 18.2733 5.84457 18.153C6.59733 17.8471 7.32013 17.4615 8 17C7.23748 16.6611 6.56829 16.2864 5.98206 15.8842C1.8865 13.0745 1.84099 8.92866 2.32004 6.3499C2.58174 4.94112 3 4.00005 3 4.00005C3.44356 4.63165 3.95267 5.21079 4.51716 5.72867C5.23844 6.3904 6.05014 6.95212 6.93101 7.39549C7.90091 7.88368 8.93609 8.21902 10 8.39335C10.4777 8.47163 10.9613 8.51744 11.4473 8.53005C11.6312 8.53482 11.8155 8.53483 12 8.53005V7.53005C11.9877 6.61238 12.2575 5.71308 12.773 4.95376C13.2884 4.19445 14.0247 3.61176 14.8821 3.2845C15.7395 2.95724 16.6767 2.90121 17.567 3.12397C18.4573 3.34674 19.2577 3.83756 19.86 4.53005C19.9773 4.49473 20.0939 4.45747 20.2097 4.41827Z" fill="#0D0E10"/>
</svg>
