<svg width="16" height="16" viewBox="0 0 16 16" fill="#0D0E10" xmlns="http://www.w3.org/2000/svg">
<path fill-rule="evenodd" clip-rule="evenodd" d="M2.6665 2.63407C2.29831 2.63407 1.99984 2.92526 1.99984 3.28447V9.78854C1.99984 10.1477 2.29831 10.4389 2.6665 10.4389H7.99984H13.3332C13.7014 10.4389 13.9998 10.1477 13.9998 9.78854V3.28447C13.9998 2.92526 13.7014 2.63407 13.3332 2.63407H2.6665ZM8.6665 11.7398H13.3332C14.4377 11.7398 15.3332 10.8662 15.3332 9.78854V3.28447C15.3332 2.20684 14.4377 1.33325 13.3332 1.33325H2.6665C1.56193 1.33325 0.666504 2.20684 0.666504 3.28447V9.78854C0.666504 10.8662 1.56193 11.7398 2.6665 11.7398H7.33317V12.7154H5.33317C4.78089 12.7154 4.33317 13.1522 4.33317 13.691C4.33317 14.2298 4.78089 14.6666 5.33317 14.6666H10.6665C11.2188 14.6666 11.6665 14.2298 11.6665 13.691C11.6665 13.1522 11.2188 12.7154 10.6665 12.7154H8.6665V11.7398Z" />
</svg>
