<svg width="25" height="24" viewBox="0 0 25 24" fill="none" xmlns="http://www.w3.org/2000/svg">
<path fill-rule="evenodd" clip-rule="evenodd" d="M4.5 11C4.5 7.13401 7.63401 4 11.5 4C15.366 4 18.5 7.13401 18.5 11C18.5 12.8859 17.7542 14.5977 16.5414 15.8564C16.5072 15.8827 16.4743 15.9115 16.4429 15.9429C16.4115 15.9742 16.3827 16.0072 16.3564 16.0414C15.0977 17.2542 13.3859 18 11.5 18C7.63401 18 4.5 14.866 4.5 11ZM17.1177 18.0319C15.578 19.2635 13.625 20 11.5 20C6.52944 20 2.5 15.9706 2.5 11C2.5 6.02944 6.52944 2 11.5 2C16.4706 2 20.5 6.02944 20.5 11C20.5 13.125 19.7635 15.078 18.5319 16.6177L22.2071 20.2929C22.5976 20.6834 22.5976 21.3166 22.2071 21.7071C21.8166 22.0976 21.1834 22.0976 20.7929 21.7071L17.1177 18.0319Z" fill="#0D0E10"/>
</svg>
