<svg width="16" height="16" viewBox="0 0 16 16" fill="none" xmlns="http://www.w3.org/2000/svg">
<path fill-rule="evenodd" clip-rule="evenodd" d="M0.073418 8.3C0.186751 8.53333 2.98008 14 8.00008 14C13.0201 14 15.8134 8.53333 15.9268 8.29333C16.0201 8.10667 16.0201 7.88667 15.9268 7.7C15.8134 7.46667 13.0201 2 8.00008 2C2.98008 2 0.186751 7.46667 0.073418 7.70667C-0.0199154 7.89333 -0.0199154 8.11333 0.073418 8.3ZM8.00008 12.6667C4.41342 12.6667 2.05342 9.07333 1.42675 8C2.05342 6.92667 4.40675 3.33333 8.00008 3.33333C11.5868 3.33333 13.9468 6.92667 14.5734 8C13.9468 9.07333 11.5934 12.6667 8.00008 12.6667ZM5.33342 8C5.33342 9.47333 6.52675 10.6667 8.00008 10.6667C9.47342 10.6667 10.6668 9.47333 10.6668 8C10.6668 6.52667 9.47342 5.33333 8.00008 5.33333C6.52675 5.33333 5.33342 6.52667 5.33342 8ZM6.66675 8C6.66675 7.26667 7.26675 6.66667 8.00008 6.66667C8.73342 6.66667 9.33342 7.26667 9.33342 8C9.33342 8.73333 8.73342 9.33333 8.00008 9.33333C7.26675 9.33333 6.66675 8.73333 6.66675 8Z" fill="#0D0E10"/>
</svg>
