<svg width="24" height="24" viewBox="0 0 24 24" fill="none" xmlns="http://www.w3.org/2000/svg">
<path fill-rule="evenodd" clip-rule="evenodd" d="M2.97631 2.97631C3.60143 2.35119 4.44928 2 5.33333 2H8.19048C8.97945 2 9.61905 2.63959 9.61905 3.42857C9.61905 4.21755 8.97945 4.85714 8.19048 4.85714H5.33333C5.20704 4.85714 5.08592 4.90731 4.99662 4.99662C4.90731 5.08592 4.85714 5.20704 4.85714 5.33333V8.19048C4.85714 8.97945 4.21755 9.61905 3.42857 9.61905C2.63959 9.61905 2 8.97945 2 8.19048V5.33333C2 4.44928 2.35119 3.60143 2.97631 2.97631ZM14.381 3.42857C14.381 2.63959 15.0205 2 15.8095 2H18.6667C19.5507 2 20.3986 2.35119 21.0237 2.97631C21.6488 3.60143 22 4.44928 22 5.33333V8.19048C22 8.97945 21.3604 9.61905 20.5714 9.61905C19.7825 9.61905 19.1429 8.97945 19.1429 8.19048V5.33333C19.1429 5.20704 19.0927 5.08592 19.0034 4.99662C18.9141 4.90731 18.793 4.85714 18.6667 4.85714H15.8095C15.0205 4.85714 14.381 4.21755 14.381 3.42857ZM3.42857 14.381C4.21755 14.381 4.85714 15.0205 4.85714 15.8095V18.6667C4.85714 18.793 4.90731 18.9141 4.99662 19.0034C5.08592 19.0927 5.20704 19.1429 5.33333 19.1429H8.19048C8.97945 19.1429 9.61905 19.7825 9.61905 20.5714C9.61905 21.3604 8.97945 22 8.19048 22H5.33333C4.44928 22 3.60143 21.6488 2.97631 21.0237C2.35119 20.3986 2 19.5507 2 18.6667V15.8095C2 15.0205 2.63959 14.381 3.42857 14.381ZM20.5714 14.381C21.3604 14.381 22 15.0205 22 15.8095V18.6667C22 19.5507 21.6488 20.3986 21.0237 21.0237C20.3986 21.6488 19.5507 22 18.6667 22H15.8095C15.0205 22 14.381 21.3604 14.381 20.5714C14.381 19.7825 15.0205 19.1429 15.8095 19.1429H18.6667C18.793 19.1429 18.9141 19.0927 19.0034 19.0034C19.0927 18.9141 19.1429 18.793 19.1429 18.6667V15.8095C19.1429 15.0205 19.7825 14.381 20.5714 14.381Z" fill="#FFBE0B"/>
</svg>
