<svg width="24" height="24" viewBox="0 0 24 24" fill="none" xmlns="http://www.w3.org/2000/svg">
<path fill-rule="evenodd" clip-rule="evenodd" d="M11.6606 3.02059C11.7506 2.93057 11.8727 2.88 12 2.88C12.1273 2.88 12.2494 2.93057 12.3394 3.02059C12.4294 3.11061 12.48 3.2327 12.48 3.36V3.4464L12.48 3.45214C12.4824 4.04189 12.6571 4.61808 12.9827 5.10978C13.3069 5.59931 13.7666 5.98383 14.3056 6.21648C14.8565 6.45798 15.4671 6.52969 16.0591 6.42234C16.6536 6.31454 17.2023 6.03118 17.6342 5.60866L17.7036 5.53927C17.7482 5.49464 17.8011 5.45924 17.8594 5.43508C17.9177 5.41092 17.9801 5.39849 18.0432 5.39849C18.1063 5.39849 18.1687 5.41092 18.227 5.43508C18.2853 5.45923 18.3382 5.49464 18.3828 5.53927L18.3839 5.5404C18.4286 5.58498 18.464 5.63792 18.4881 5.69619C18.5123 5.75446 18.5247 5.81692 18.5247 5.88C18.5247 5.94308 18.5123 6.00554 18.4881 6.06381C18.464 6.12208 18.428 6.17559 18.3834 6.22017L18.3257 6.27771L18.3146 6.28906C17.8921 6.72099 17.6087 7.2696 17.5009 7.86412C17.4101 8.36483 17.4474 8.87877 17.6071 9.35871C17.6261 9.4714 17.6584 9.58171 17.7036 9.68726C17.936 10.2293 18.3217 10.6916 18.8134 11.0173C19.3051 11.3429 19.8813 11.5176 20.4711 11.52L20.4768 11.52H20.64C20.7673 11.52 20.8894 11.5706 20.9794 11.6606C21.0694 11.7506 21.12 11.8727 21.12 12C21.12 12.1273 21.0694 12.2494 20.9794 12.3394C20.8894 12.4294 20.7673 12.48 20.64 12.48L20.5536 12.48L20.5479 12.48C19.9581 12.4824 19.3819 12.6571 18.8902 12.9827C18.4007 13.3069 18.0162 13.7666 17.7835 14.3056C17.542 14.8565 17.4703 15.4671 17.5777 16.0591C17.6855 16.6536 17.9688 17.2023 18.3913 17.6342L18.4607 17.7036C18.5054 17.7482 18.5408 17.8011 18.5649 17.8594C18.5891 17.9177 18.6015 17.9801 18.6015 18.0432C18.6015 18.1063 18.5891 18.1687 18.5649 18.227C18.5408 18.2853 18.5054 18.3382 18.4607 18.3828L18.4596 18.3839C18.415 18.4286 18.3621 18.464 18.3038 18.4881C18.2455 18.5123 18.1831 18.5247 18.12 18.5247C18.0569 18.5247 17.9945 18.5123 17.9362 18.4881C17.8779 18.464 17.8244 18.428 17.7798 18.3834L17.7223 18.3257L17.7109 18.3146C17.279 17.8921 16.7304 17.6087 16.1359 17.5009C15.5439 17.3935 14.9333 17.4652 14.3824 17.7067C13.8434 17.9394 13.3837 18.3239 13.0595 18.8134C12.7339 19.3051 12.5592 19.8813 12.5568 20.4711L12.5568 20.4768V20.64C12.5568 20.7673 12.5062 20.8894 12.4162 20.9794C12.3262 21.0694 12.2041 21.12 12.0768 21.12C11.9495 21.12 11.8274 21.0694 11.7374 20.9794C11.6474 20.8894 11.5968 20.7673 11.5968 20.64V20.5536C11.5968 20.5424 11.5967 20.5311 11.5964 20.5199C11.5822 19.9133 11.3859 19.325 11.0329 18.8314C10.6887 18.3502 10.2111 17.9808 9.65964 17.7685C9.11784 17.5391 8.52051 17.4726 7.94093 17.5777C7.3464 17.6855 6.79773 17.9688 6.3658 18.3913L6.2964 18.4607C6.25182 18.5054 6.19889 18.5408 6.14061 18.5649C6.08234 18.5891 6.01988 18.6015 5.9568 18.6015C5.89372 18.6015 5.83126 18.5891 5.77299 18.5649C5.71471 18.5408 5.66178 18.5054 5.6172 18.4607L5.61607 18.4596C5.57144 18.415 5.53604 18.3621 5.51188 18.3038C5.48772 18.2455 5.47529 18.1831 5.47529 18.12C5.47529 18.0569 5.48772 17.9945 5.51188 17.9362C5.53604 17.8779 5.572 17.8244 5.61663 17.7798L5.67429 17.7223L5.6854 17.7109C6.10791 17.279 6.39134 16.7304 6.49914 16.1359C6.60649 15.5439 6.53478 14.9333 6.29328 14.3824C6.06063 13.8434 5.67611 13.3837 5.18658 13.0595C4.69488 12.7339 4.11869 12.5592 3.52894 12.5568H3.36C3.2327 12.5568 3.11061 12.5062 3.02059 12.4162C2.93057 12.3262 2.88 12.2041 2.88 12.0768C2.88 11.9495 2.93057 11.8274 3.02059 11.7374C3.11061 11.6474 3.2327 11.5968 3.36 11.5968H3.4464C3.45763 11.5968 3.46885 11.5967 3.48007 11.5964C4.0867 11.5822 4.67502 11.3859 5.16856 11.0329C5.64976 10.6887 6.01915 10.2112 6.23146 9.65967C6.46091 9.11786 6.52743 8.52052 6.42234 7.94093C6.31454 7.3464 6.03118 6.79773 5.60866 6.3658L5.53927 6.2964C5.49464 6.25182 5.45923 6.19888 5.43508 6.14061C5.41092 6.08234 5.39849 6.01988 5.39849 5.9568C5.39849 5.89372 5.41092 5.83126 5.43508 5.77299C5.45923 5.71472 5.49464 5.66178 5.53927 5.6172L5.5404 5.61607C5.58498 5.57144 5.63792 5.53603 5.69619 5.51188C5.75446 5.48772 5.81692 5.47529 5.88 5.47529C5.94308 5.47529 6.00554 5.48772 6.06381 5.51188C6.12208 5.53603 6.17559 5.57201 6.22017 5.61663L6.2777 5.6743L6.28906 5.6854C6.72099 6.10791 7.2696 6.39134 7.86412 6.49914C8.36483 6.58993 8.87877 6.55264 9.35872 6.39288C9.4714 6.37393 9.58171 6.3416 9.68726 6.29636C10.2293 6.06404 10.6916 5.67828 11.0173 5.18658C11.3429 4.69488 11.5176 4.11869 11.52 3.52894V3.36C11.52 3.2327 11.5706 3.11061 11.6606 3.02059ZM20.4214 15.4614L19.104 14.88L20.4276 15.4473C20.4386 15.4215 20.457 15.3994 20.4804 15.3839C20.5035 15.3687 20.5304 15.3604 20.558 15.36H20.64C21.5311 15.36 22.3858 15.006 23.0159 14.3759C23.646 13.7458 24 12.8911 24 12C24 11.1089 23.646 10.2542 23.0159 9.62412C22.3858 8.994 21.5311 8.64 20.64 8.64H20.4812C20.4536 8.63963 20.4267 8.63133 20.4036 8.61607L20.4021 8.61504C20.3859 8.56301 20.3667 8.51184 20.3446 8.46178C20.333 8.43546 20.3295 8.40626 20.3347 8.37794C20.3396 8.35084 20.3521 8.32574 20.3709 8.3056L20.4198 8.25663C20.732 7.9447 20.9796 7.57433 21.1486 7.16668C21.3177 6.75878 21.4047 6.32156 21.4047 5.88C21.4047 5.43844 21.3177 5.00122 21.1486 4.59332C20.9797 4.18591 20.7323 3.81575 20.4204 3.50393C20.1083 3.19153 19.7378 2.9437 19.3299 2.77461C18.922 2.60552 18.4848 2.51849 18.0432 2.51849C17.6016 2.51849 17.1644 2.60552 16.7565 2.77461C16.3486 2.9437 15.9781 3.19153 15.666 3.50393L15.6176 3.55234C15.5975 3.57105 15.5724 3.58363 15.5453 3.58855C15.5169 3.59368 15.4878 3.59014 15.4615 3.57852L15.4473 3.57244C15.4214 3.56138 15.3994 3.54301 15.3839 3.51959C15.3687 3.49654 15.3604 3.46958 15.36 3.44195V3.36C15.36 2.46887 15.006 1.61424 14.3759 0.984121C13.7458 0.353999 12.8911 0 12 0C11.1089 0 10.2542 0.353999 9.62412 0.984121C8.994 1.61424 8.64 2.46887 8.64 3.36V3.51879C8.63963 3.54641 8.63133 3.57335 8.61607 3.59639L8.61504 3.59792C8.56302 3.61413 8.51184 3.6333 8.46178 3.6554C8.43546 3.66702 8.40626 3.67048 8.37794 3.66535C8.35084 3.66043 8.32574 3.64785 8.3056 3.62913L8.25663 3.58017C7.9447 3.26803 7.57433 3.0204 7.16668 2.85141C6.75878 2.68232 6.32156 2.59529 5.88 2.59529C5.43844 2.59529 5.00122 2.68232 4.59332 2.85141C4.18567 3.0204 3.8153 3.26803 3.50337 3.58017C3.19123 3.8921 2.9436 4.26247 2.77461 4.67012C2.60552 5.07802 2.51849 5.51524 2.51849 5.9568C2.51849 6.39836 2.60552 6.83558 2.77461 7.24348C2.9436 7.65113 3.1918 8.02206 3.50393 8.334L3.55233 8.3824C3.57105 8.40254 3.58363 8.42764 3.58855 8.45474C3.59368 8.48306 3.59022 8.51225 3.5786 8.53858C3.56635 8.56633 3.55498 8.59447 3.54451 8.62294C3.53453 8.65006 3.51663 8.67355 3.49313 8.69036C3.47175 8.70565 3.44663 8.71477 3.42052 8.7168H3.36C2.46887 8.7168 1.61424 9.0708 0.984121 9.70092C0.353999 10.331 0 11.1857 0 12.0768C0 12.9679 0.353999 13.8226 0.984121 14.4527C1.61424 15.0828 2.46887 15.4368 3.36 15.4368H3.51875C3.54638 15.4372 3.57334 15.4455 3.59639 15.4607C3.61981 15.4762 3.6381 15.4983 3.64916 15.5241L3.6554 15.5382C3.66702 15.5645 3.67048 15.5937 3.66535 15.6221C3.66043 15.6492 3.64785 15.6743 3.62914 15.6944L3.58073 15.7428C3.26833 16.0549 3.0205 16.4254 2.85141 16.8333C2.68232 17.2412 2.59529 17.6784 2.59529 18.12C2.59529 18.5616 2.68232 18.9988 2.85141 19.4067C3.0203 19.8141 3.26773 20.1842 3.5796 20.4961C3.89166 20.8085 4.26223 21.0563 4.67012 21.2254C5.07802 21.3945 5.51524 21.4815 5.9568 21.4815C6.39836 21.4815 6.83558 21.3945 7.24348 21.2254C7.65137 21.0563 8.02194 20.8085 8.334 20.4961L8.38242 20.4476C8.40255 20.4289 8.42765 20.4164 8.45474 20.4115C8.48306 20.4063 8.51226 20.4098 8.53858 20.4214C8.56633 20.4337 8.59447 20.445 8.62294 20.4555C8.65006 20.4655 8.67355 20.4834 8.69036 20.5069C8.70565 20.5282 8.71477 20.5534 8.7168 20.5795V20.64C8.7168 21.5311 9.0708 22.3858 9.70092 23.0159C10.331 23.646 11.1857 24 12.0768 24C12.9679 24 13.8226 23.646 14.4527 23.0159C15.0828 22.3858 15.4368 21.5311 15.4368 20.64V20.4812C15.4372 20.4536 15.4455 20.4267 15.4607 20.4036C15.4762 20.3802 15.4983 20.3619 15.5241 20.3508L15.5382 20.3446C15.5645 20.333 15.5937 20.3295 15.6221 20.3347C15.6492 20.3396 15.6743 20.3521 15.6944 20.3709L15.7428 20.4193C16.0549 20.7317 16.4254 20.9795 16.8333 21.1486C17.2412 21.3177 17.6784 21.4047 18.12 21.4047C18.5616 21.4047 18.9988 21.3177 19.4067 21.1486C19.8141 20.9797 20.1842 20.7323 20.4961 20.4204C20.8085 20.1083 21.0563 19.7378 21.2254 19.3299C21.3945 18.922 21.4815 18.4848 21.4815 18.0432C21.4815 17.6016 21.3945 17.1644 21.2254 16.7565C21.0563 16.3486 20.8085 15.9781 20.4961 15.666L20.4477 15.6176C20.4289 15.5975 20.4164 15.5724 20.4115 15.5453C20.4063 15.5169 20.4098 15.4877 20.4214 15.4614ZM20.4961 20.4204L20.4972 20.4193L19.4784 19.4016L20.4961 20.4204ZM15.6944 20.3709L15.6858 20.3622L16.704 19.344L15.6971 20.3734L15.6944 20.3709ZM15.4368 20.4812L15.4368 20.4825L13.9968 20.4768H15.4368V20.4812ZM8.7168 20.5795V20.5536H10.1568L8.71719 20.5873L8.7168 20.5795ZM8.38242 20.4476L8.37974 20.4502L7.37282 19.4208L8.39105 20.439L8.38242 20.4476ZM3.5796 20.4961L4.59818 19.4786L3.58073 20.4972L3.5796 20.4961ZM3.62914 15.6944L3.63777 15.6858L4.656 16.704L3.6266 15.6971L3.62914 15.6944ZM3.51875 15.4368L3.51746 15.4368L3.5232 13.9968V15.4368H3.51875ZM3.42052 8.7168H3.4464V10.1568L3.41273 8.71719L3.42052 8.7168ZM3.55233 8.3824L3.5498 8.37974L4.57918 7.37282L3.56097 8.39103L3.55233 8.3824ZM8.3056 3.62913L8.31423 3.63777L7.29602 4.65598L8.30294 3.6266L8.3056 3.62913ZM8.57856 3.63488C8.59279 3.62492 8.60518 3.61241 8.61504 3.59792L8.61732 3.59722C8.68621 3.57589 8.69802 3.56828 8.71078 3.56599C8.72351 3.56372 8.73719 3.56674 8.80945 3.56674H8.73238L8.67691 3.58017L8.57856 3.63488ZM8.57856 3.63488C8.5705 3.64051 8.56186 3.64533 8.55274 3.64924L8.57856 3.63488ZM8.64 3.51879L8.64001 3.51746L10.08 3.5232H8.64V3.51879ZM10.56 12C10.56 11.2047 11.2047 10.56 12 10.56C12.7952 10.56 13.44 11.2047 13.44 12C13.44 12.7953 12.7952 13.44 12 13.44C11.2047 13.44 10.56 12.7953 10.56 12ZM12 7.67999C9.61408 7.67999 7.67995 9.61412 7.67995 12C7.67995 14.3859 9.61408 16.32 12 16.32C14.3858 16.32 16.32 14.3859 16.32 12C16.32 9.61412 14.3858 7.67999 12 7.67999Z" fill="#FFBE0B"/>
</svg>
