<svg width="24" height="24" viewBox="0 0 24 24" fill="#FFBE0B" xmlns="http://www.w3.org/2000/svg">
<path fill-rule="evenodd" clip-rule="evenodd" d="M19.9255 5.25972C19.3906 4.72474 18.5234 4.72461 17.9884 5.25943C17.4534 5.79424 17.4533 6.66149 17.9881 7.19646C19.4432 8.65198 20.2606 10.6258 20.2606 12.6839C20.2606 14.742 19.4432 16.7158 17.9881 18.1714C17.4533 18.7063 17.4534 19.5736 17.9884 20.1084C18.5234 20.6432 19.3906 20.6431 19.9255 20.1081C21.8941 18.1389 23 15.4684 23 12.6839C23 9.89943 21.8941 7.22894 19.9255 5.25972ZM16.7021 8.48306C16.1673 7.94808 15.3001 7.94795 14.7651 8.48277C14.2301 9.01759 14.23 9.88483 14.7648 10.4198C15.3639 11.0191 15.7005 11.8319 15.7005 12.6793C15.7005 13.5268 15.3639 14.3396 14.7648 14.9389C14.23 15.4739 14.2301 16.3411 14.7651 16.8759C15.3001 17.4107 16.1673 17.4106 16.7021 16.8756C17.8148 15.7626 18.4399 14.2532 18.4399 12.6793C18.4399 11.1055 17.8148 9.5961 16.7021 8.48306ZM12.9575 6.29204C12.9575 5.76552 12.6557 5.28561 12.1812 5.05753C11.7066 4.82945 11.1434 4.89358 10.7322 5.22249L6.54175 8.57486H3.36969C2.61323 8.57486 2 9.1881 2 9.94456V15.4233C2 16.1798 2.61323 16.793 3.36969 16.793H6.54175L10.7322 20.1454C11.1434 20.4743 11.7066 20.5384 12.1812 20.3104C12.6557 20.0823 12.9575 19.6024 12.9575 19.0758V6.29204ZM7.87785 11.0141L10.2182 9.14186V16.226L7.87785 14.3538C7.63498 14.1595 7.33323 14.0536 7.02221 14.0536H4.73939V11.3142H7.02221C7.33323 11.3142 7.63498 11.2084 7.87785 11.0141Z" />
</svg>
